<svg width="48" height="48" viewBox="0 0 48 48" fill="none" xmlns="http://www.w3.org/2000/svg">
<path d="M29.1152 21.3106C32.0605 21.3106 34.4481 18.9101 34.4481 15.9489V24.6457C34.4481 25.7585 33.5508 26.6607 32.444 26.6607H15.1207C14.0138 26.6607 13.1166 25.7585 13.1166 24.6457V15.9489C13.1166 18.9101 15.5042 21.3106 18.4494 21.3106C21.3947 21.3106 23.7823 18.9101 23.7823 15.9489C23.7823 18.9101 26.17 21.3106 29.1152 21.3106Z" fill="#9CA3AF"/>
<path d="M23.7823 15.9373L23.7823 15.9489C23.7823 15.9451 23.7823 15.9412 23.7823 15.9373Z" fill="#9CA3AF"/>
<path d="M23.1143 28.004C23.1205 30.9598 25.5057 33.3541 28.4472 33.3541C31.3886 33.3541 33.7738 30.9598 33.7801 28.004H23.1143Z" fill="#9CA3AF"/>
<path d="M13.7846 28.004C13.7846 28.0079 13.7846 28.0117 13.7846 28.0156C13.7908 30.9714 16.1761 33.3657 19.1175 33.3657C22.0589 33.3657 24.4442 30.9714 24.4504 28.0156H13.7846V28.004Z" fill="#9CA3AF"/>
<path d="M14.4527 15.9373C14.4527 16.6792 13.8545 17.2806 13.1166 17.2806C12.3786 17.2806 11.7805 16.6792 11.7805 15.9373C11.7805 15.1954 12.3786 14.594 13.1166 14.594C13.8545 14.594 14.4527 15.1954 14.4527 15.9373Z" fill="#9CA3AF"/>
<path d="M25.1184 15.2657C25.1184 16.0076 24.5202 16.609 23.7823 16.609C23.0444 16.609 22.4462 16.0076 22.4462 15.2657C22.4462 14.5238 23.0444 13.9224 23.7823 13.9224C24.5202 13.9224 25.1184 14.5238 25.1184 15.2657Z" fill="#9CA3AF"/>
<path d="M35.7842 15.9373C35.7842 16.6792 35.186 17.2806 34.4481 17.2806C33.7102 17.2806 33.112 16.6792 33.112 15.9373C33.112 15.1954 33.7102 14.594 34.4481 14.594C35.186 14.594 35.7842 15.1954 35.7842 15.9373Z" fill="#9CA3AF"/>
</svg>
