<svg width="24" height="20" viewBox="0 0 24 20" fill="none" xmlns="http://www.w3.org/2000/svg">
<path d="M17.3321 7.34741C20.2769 7.34741 22.6641 4.96017 22.6641 2.01536V10.6641C22.6641 11.7708 21.767 12.6679 20.6603 12.6679H3.33973C2.23304 12.6679 1.33589 11.7708 1.33589 10.6641V2.01536C1.33589 4.96017 3.72314 7.34741 6.66795 7.34741C9.61276 7.34741 12 4.96017 12 2.01536C12 4.96017 14.3872 7.34741 17.3321 7.34741Z" fill="#9CA3AF"/>
<path d="M12 2.00384L12 2.01536C12 2.01151 12 2.00768 12 2.00384Z" fill="#9CA3AF"/>
<path d="M11.3321 14.0038C11.3383 16.9434 13.7231 19.3244 16.6641 19.3244C19.6051 19.3244 21.9899 16.9434 21.9962 14.0038H11.3321Z" fill="#9CA3AF"/>
<path d="M2.00384 14.0038C2.00384 14.0077 2.00383 14.0115 2.00384 14.0154C2.01006 16.9549 4.39493 19.3359 7.3359 19.3359C10.2769 19.3359 12.6617 16.9549 12.6679 14.0154H2.00384V14.0038Z" fill="#9CA3AF"/>
<path d="M2.67179 2.00384C2.67179 2.74163 2.07369 3.33973 1.33589 3.33973C0.598099 3.33973 0 2.74163 0 2.00384C0 1.26605 0.598099 0.667946 1.33589 0.667946C2.07369 0.667946 2.67179 1.26605 2.67179 2.00384Z" fill="#9CA3AF"/>
<path d="M13.3359 1.33589C13.3359 2.07369 12.7378 2.67179 12 2.67179C11.2622 2.67179 10.6641 2.07369 10.6641 1.33589C10.6641 0.598099 11.2622 0 12 0C12.7378 0 13.3359 0.598099 13.3359 1.33589Z" fill="#9CA3AF"/>
<path d="M24 2.00384C24 2.74163 23.4019 3.33973 22.6641 3.33973C21.9263 3.33973 21.3282 2.74163 21.3282 2.00384C21.3282 1.26605 21.9263 0.667946 22.6641 0.667946C23.4019 0.667946 24 1.26605 24 2.00384Z" fill="#9CA3AF"/>
</svg>
