<svg width="32" height="32" viewBox="0 0 32 32" fill="none" xmlns="http://www.w3.org/2000/svg">
<g id="Logo x 32">
<g id="Vector">
<path d="M5.10701 7.60169V16.7669C5.10701 18.1921 6.30478 19.3475 7.78229 19.3475H25.31C26.7566 19.3475 27.935 18.2399 27.9837 16.8559H27.9852V7.60169H27.5232C27.474 10.411 25.0976 12.6737 22.1734 12.6737C19.2492 12.6737 16.8729 10.411 16.8237 7.60169H16.2686C16.2194 10.411 13.843 12.6737 10.9188 12.6737C7.9946 12.6737 5.61828 10.411 5.56904 7.60169H5.10701Z" fill="#9CA3AF"/>
<path d="M6.67528 8.18008C6.67528 8.89267 6.0764 9.47034 5.33764 9.47034C4.59888 9.47034 4 8.89267 4 8.18008C4 7.4675 4.59888 6.88983 5.33764 6.88983C6.0764 6.88983 6.67528 7.4675 6.67528 8.18008Z" fill="#9CA3AF"/>
<path d="M17.8376 7.29025C17.8376 8.00284 17.2388 8.58051 16.5 8.58051C15.7612 8.58051 15.1624 8.00284 15.1624 7.29025C15.1624 6.57767 15.7612 6 16.5 6C17.2388 6 17.8376 6.57767 17.8376 7.29025Z" fill="#9CA3AF"/>
<path d="M29 8.18008C29 8.89267 28.4011 9.47034 27.6624 9.47034C26.9236 9.47034 26.3247 8.89267 26.3247 8.18008C26.3247 7.4675 26.9236 6.88983 27.6624 6.88983C28.4011 6.88983 29 7.4675 29 8.18008Z" fill="#9CA3AF"/>
<path d="M16.5446 21.928H5.84502C5.89425 24.7373 8.27058 27 11.1948 27C14.119 27 16.4953 24.7373 16.5446 21.928Z" fill="#9CA3AF"/>
<path d="M16.5461 21.928C16.5954 24.7373 18.9717 27 21.8959 27C24.8201 27 27.1964 24.7373 27.2457 21.928H16.5461Z" fill="#9CA3AF"/>
</g>
</g>
</svg>
